<?xml version="1.0" encoding="UTF-8"?>
<svg xmlns="http://www.w3.org/2000/svg" width="64" height="65" viewBox="0 0 64 65" fill="none">
  <path d="M22.14 0.759766H59C61.76 0.759766 64 2.99977 64 5.75977V42.6198C64 45.2698 62.945 47.8148 61.07 49.6898L48.93 61.8298C47.055 63.7048 44.51 64.7598 41.86 64.7598H5C2.24 64.7598 0 62.5198 0 59.7598V22.8998C0 20.2498 1.055 17.7048 2.93 15.8298L15.07 3.68977C16.945 1.81477 19.49 0.759766 22.14 0.759766Z" fill="url(#paint0_linear_2447_4906)"/>
  <path d="M52 12.7598H6V58.7598H52V12.7598Z" fill="black"/>
  <path d="M11.92 22.2498C11.985 22.1298 12.02 21.9898 12.02 21.8298V16.7598H13.655V21.9498C13.655 22.3798 13.565 22.7648 13.38 23.0948C13.195 23.4248 12.93 23.6798 12.595 23.8648C12.255 24.0498 11.87 24.1398 11.435 24.1398H10V22.6348H11.22C11.38 22.6348 11.52 22.5998 11.64 22.5348C11.76 22.4698 11.855 22.3748 11.92 22.2498Z" fill="white"/>
  <path d="M10 51.7598H26V54.7598H10V51.7598Z" fill="white"/>
  <path d="M16.595 21.1298H20.07V19.7498H16.595V18.1848H20.43V16.7598H15.005V24.1398H20.535V22.7198H16.595V21.1298Z" fill="white"/>
  <path d="M23.32 18.2248H21.13V16.7598H27.13V18.2248H24.95V24.1398H23.32V18.2248Z" fill="white"/>
  <path fill-rule="evenodd" clip-rule="evenodd" d="M14.935 30.0548C14.81 29.9898 14.675 29.9348 14.535 29.8948C14.64 29.8648 14.745 29.8248 14.84 29.7748C15.11 29.6348 15.32 29.4398 15.475 29.1848C15.63 28.9298 15.705 28.6398 15.705 28.3148C15.705 27.9398 15.605 27.6048 15.4 27.3098C15.195 27.0148 14.91 26.7848 14.54 26.6198C14.17 26.4548 13.75 26.3698 13.28 26.3698H10V33.7498H13.345C13.84 33.7498 14.285 33.6648 14.67 33.4898C15.06 33.3148 15.36 33.0748 15.575 32.7648C15.79 32.4548 15.895 32.1048 15.895 31.7048C15.895 31.3398 15.81 31.0148 15.64 30.7248C15.47 30.4348 15.235 30.2148 14.935 30.0548ZM11.585 27.6098H13.035C13.235 27.6098 13.415 27.6448 13.565 27.7198C13.72 27.7898 13.84 27.8948 13.925 28.0298C14.01 28.1648 14.055 28.3198 14.055 28.4998C14.055 28.6798 14.01 28.8498 13.925 28.9898C13.84 29.1298 13.72 29.2348 13.565 29.3098C13.41 29.3848 13.235 29.4248 13.035 29.4248H11.585V27.6098ZM14.085 32.0798C13.99 32.2198 13.86 32.3298 13.69 32.4048C13.52 32.4798 13.325 32.5198 13.1 32.5198H11.585V30.6248H13.1C13.32 30.6248 13.51 30.6648 13.685 30.7448C13.855 30.8248 13.99 30.9398 14.085 31.0848C14.18 31.2298 14.225 31.3998 14.225 31.5898C14.225 31.7798 14.18 31.9398 14.085 32.0798Z" fill="white"/>
  <path fill-rule="evenodd" clip-rule="evenodd" d="M22.46 29.9398C22.235 30.2948 21.92 30.5748 21.51 30.7698L21.505 30.7648C21.425 30.7998 21.345 30.8348 21.26 30.8648L22.945 33.7498H21.08L19.585 31.0598H18.52V33.7498H16.885V26.3698H20.115C20.65 26.3698 21.12 26.4648 21.525 26.6598C21.93 26.8548 22.245 27.1248 22.465 27.4798C22.685 27.8348 22.795 28.2298 22.795 28.6998C22.795 29.1698 22.685 29.5848 22.46 29.9398ZM19.995 27.6998H18.525V29.7448H19.995C20.225 29.7448 20.42 29.7048 20.59 29.6198C20.76 29.5398 20.89 29.4198 20.98 29.2648C21.07 29.1098 21.115 28.9248 21.115 28.7198C21.115 28.5148 21.07 28.3348 20.98 28.1798C20.89 28.0248 20.76 27.9098 20.59 27.8248C20.42 27.7398 20.225 27.6998 19.995 27.6998Z" fill="white"/>
  <path fill-rule="evenodd" clip-rule="evenodd" d="M25.74 26.3748L23.105 33.7548H24.765L25.285 32.1248H28.02L28.58 33.7548H30.21L27.51 26.3748H25.74ZM25.655 30.8898L26.505 28.2848L26.605 27.8098L26.705 28.2848L27.61 30.8898H25.655Z" fill="white"/>
  <path d="M30.95 26.3748H32.635V33.7548H30.95V26.3748Z" fill="white"/>
  <path d="M38.785 31.3648L35.61 26.3748H34.02V33.7548H35.51V28.7598L38.67 33.7548H40.28V26.3748H38.785V31.3648Z" fill="white"/>
  <path d="M46.065 29.7698C46.35 29.9748 46.575 30.2298 46.735 30.5398H46.73C46.89 30.8498 46.97 31.1848 46.97 31.5498C46.97 31.9948 46.85 32.3948 46.615 32.7498C46.38 33.1048 46.05 33.3798 45.625 33.5798C45.2 33.7798 44.71 33.8798 44.165 33.8798C43.62 33.8798 43.135 33.7798 42.715 33.5848C42.29 33.3898 41.96 33.1148 41.72 32.7648C41.48 32.4098 41.355 32.0048 41.35 31.5448H42.985C42.985 31.7348 43.04 31.9048 43.14 32.0498C43.24 32.1948 43.38 32.3048 43.565 32.3848C43.745 32.4648 43.96 32.5048 44.185 32.5048C44.41 32.5048 44.61 32.4698 44.775 32.3998C44.94 32.3298 45.07 32.2298 45.165 32.0998C45.26 31.9698 45.305 31.8198 45.305 31.6548C45.305 31.4548 45.24 31.2798 45.115 31.1448C44.99 31.0098 44.82 30.9148 44.6 30.8598L43.27 30.5848C42.925 30.5098 42.62 30.3798 42.355 30.1898C42.095 29.9998 41.89 29.7598 41.745 29.4748C41.6 29.1898 41.53 28.8698 41.53 28.5148C41.53 28.0748 41.64 27.6848 41.865 27.3398C42.085 26.9948 42.4 26.7298 42.8 26.5348C43.2 26.3398 43.65 26.2448 44.17 26.2448C44.69 26.2448 45.15 26.3398 45.55 26.5248C45.955 26.7098 46.27 26.9698 46.495 27.2998C46.72 27.6298 46.84 28.0098 46.85 28.4398H45.215C45.215 28.2798 45.17 28.1398 45.085 28.0148C45 27.8898 44.88 27.7948 44.725 27.7248C44.57 27.6548 44.385 27.6198 44.185 27.6198C43.985 27.6198 43.81 27.6548 43.655 27.7198C43.505 27.7848 43.385 27.8748 43.3 27.9948C43.215 28.1148 43.175 28.2498 43.175 28.4098C43.175 28.5848 43.235 28.7298 43.35 28.8498C43.465 28.9698 43.625 29.0498 43.82 29.0948L45.075 29.3548C45.445 29.4248 45.775 29.5648 46.065 29.7698Z" fill="white"/>
  <defs>
    <linearGradient id="paint0_linear_2447_4906" x1="1" y1="63.7598" x2="62.75" y2="2.00977" gradientUnits="userSpaceOnUse">
      <stop stop-color="#FF9419"/>
      <stop offset="0.43" stop-color="#FF021D"/>
      <stop offset="0.99" stop-color="#E600FF"/>
    </linearGradient>
  </defs>
</svg>